<svg width="500" height="500" viewBox="0 0 500 500" fill="none" xmlns="http://www.w3.org/2000/svg">
<mask id="mask0_1070_7066" style="mask-type:luminance" maskUnits="userSpaceOnUse" x="21" y="318" width="458" height="29">
<path d="M21 318.72H479V346.945H21V318.72Z" fill="white"/>
</mask>
<g mask="url(#mask0_1070_7066)">
<path d="M478.666 323.658C478.666 322.501 478.899 321.344 478.666 319.948H21.334C21.1014 321.111 21.334 322.268 21.334 323.658C21.334 336.175 31.5316 346.373 44.0491 346.373H455.718C468.236 346.373 478.666 336.175 478.666 323.658Z" fill="#49582A"/>
</g>
<mask id="mask1_1070_7066" style="mask-type:luminance" maskUnits="userSpaceOnUse" x="49" y="71" width="402" height="236">
<path d="M49.2433 71H450.757V306.506H49.2433V71Z" fill="white"/>
</mask>
<g mask="url(#mask1_1070_7066)">
<path d="M256.143 106.233L264.486 89.5466H266.34C271.439 89.5466 275.613 85.3721 275.613 80.2733C275.613 75.1745 271.439 71 266.34 71H233.427C228.329 71 224.154 75.1745 224.154 80.2733C224.154 85.3721 228.329 89.5466 233.427 89.5466H235.282L243.625 106.233C135.84 109.483 49.3806 197.797 49.3806 306.506H450.62C450.62 197.797 363.928 109.483 256.143 106.233ZM87.1656 289.122H67.6946C76.0376 201.506 146.27 132.663 233.893 124.779C156.009 143.093 96.6655 208.46 87.1656 289.122Z" fill="#49582A"/>
</g>
<path d="M66.2037 428.121L63.6751 419.82H50.9609L48.4323 428.121H40.465L52.7738 393.103H61.8145L74.171 428.121H66.2037ZM61.9099 413.618L59.3814 405.507C59.2204 404.97 59.0057 404.279 58.7373 403.432C58.4809 402.573 58.2185 401.708 57.9501 400.832C57.6937 399.943 57.485 399.174 57.3299 398.518C57.1689 399.174 56.9483 399.985 56.662 400.951C56.3877 401.905 56.1253 402.812 55.8748 403.67C55.6184 404.529 55.4335 405.143 55.3262 405.507L52.8215 413.618H61.9099Z" fill="#49582A"/>
<path d="M136.262 428.121H126.864L111.692 401.738H111.478C111.537 402.835 111.597 403.945 111.645 405.054C111.692 406.169 111.74 407.284 111.788 408.393C111.836 409.491 111.883 410.6 111.931 411.709V428.121H105.323V393.246H114.65L129.798 419.366H129.965C129.929 418.287 129.893 417.214 129.846 416.146C129.798 415.085 129.75 414.017 129.702 412.95C129.667 411.888 129.637 410.821 129.607 409.753V393.246H136.262V428.121Z" fill="#49582A"/>
<path d="M182.656 407.606L189.932 393.246H197.899L186.33 414.548V428.121H178.983V414.786L167.413 393.246H175.428L182.656 407.606Z" fill="#49582A"/>
<path d="M283.325 398.899C281.905 398.899 280.653 399.18 279.556 399.734C278.47 400.277 277.558 401.064 276.812 402.096C276.079 403.134 275.524 404.38 275.143 405.841C274.761 407.308 274.57 408.954 274.57 410.779C274.57 413.248 274.868 415.353 275.477 417.1C276.097 418.836 277.051 420.165 278.339 421.084C279.627 421.99 281.285 422.444 283.325 422.444C284.738 422.444 286.151 422.289 287.571 421.966C289.002 421.65 290.552 421.197 292.222 420.607V426.809C290.678 427.447 289.157 427.9 287.666 428.169C286.169 428.455 284.494 428.598 282.633 428.598C279.037 428.598 276.079 427.858 273.759 426.379C271.451 424.889 269.74 422.801 268.63 420.13C267.515 417.446 266.961 414.309 266.961 410.731C266.961 408.095 267.319 405.674 268.034 403.479C268.75 401.285 269.799 399.389 271.183 397.778C272.566 396.174 274.272 394.934 276.312 394.057C278.345 393.186 280.683 392.745 283.325 392.745C285.054 392.745 286.789 392.972 288.525 393.413C290.272 393.842 291.942 394.439 293.534 395.202L291.149 401.213C289.843 400.593 288.531 400.056 287.213 399.591C285.889 399.132 284.595 398.899 283.325 398.899Z" fill="#49582A"/>
<path d="M354.982 428.121H347.611V413.069H333.8V428.121H326.405V393.246H333.8V406.915H347.611V393.246H354.982V428.121Z" fill="#49582A"/>
<path d="M410.632 428.121H390.547V393.246H410.632V399.305H397.942V406.962H409.749V413.021H397.942V422.014H410.632V428.121Z" fill="#49582A"/>
<path d="M451.948 428.121H444.673V393.246H464.662V399.305H451.948V408.298H463.78V414.333H451.948V428.121Z" fill="#49582A"/>
</svg>
