<svg xmlns="http://www.w3.org/2000/svg" xmlns:xlink="http://www.w3.org/1999/xlink" width="500" zoomAndPan="magnify" viewBox="0 0 375 374.999991" height="500" preserveAspectRatio="xMidYMid meet" version="1.0"><path fill="#1a5c74" d="M 330.429688 281.671875 C 329.3125 282.34375 205.179688 338.261719 90.246094 309.488281 C 70.210938 304.476562 52.738281 302.121094 38.410156 301.1875 C 45.5 310.480469 53.449219 319.078125 62.125 326.890625 C 68.101562 327.375 74.96875 328.179688 83.179688 329.5 C 217.949219 351.128906 330.429688 281.671875 330.429688 281.671875 " fill-opacity="1" fill-rule="nonzero"/><path fill="#00adee" d="M 331.308594 109.9375 C 326.871094 131.714844 301.417969 166.199219 208.878906 206.414062 C 215.050781 187.238281 231.667969 165.183594 241.273438 153.464844 C 267.386719 142.03125 294.453125 125.484375 314.179688 101.808594 C 320.652344 94.046875 333.332031 100.03125 331.308594 109.9375 Z M 187.546875 0.0429688 C 83.992188 0.0429688 0.0429688 83.992188 0.0429688 187.546875 C 0.0429688 205.707031 2.636719 223.261719 7.453125 239.867188 C 17.636719 221.320312 33.316406 205.773438 53.089844 195.765625 C 66.367188 189.039062 81.28125 179.65625 97.539062 166.601562 C 137.953125 134.152344 156.542969 99.4375 164.980469 76.523438 C 168.8125 66.125 181.664062 68.007812 185.992188 78.214844 C 191.492188 91.1875 187.324219 125.414062 162.578125 168.128906 C 157.890625 170.839844 152.945312 173.238281 147.761719 175.152344 C 124.378906 183.8125 105.457031 182.898438 93.917969 180.714844 C 88.675781 179.722656 86.277344 185.496094 89.417969 189.804688 C 93.695312 195.671875 110.78125 202.996094 137.511719 202.347656 C 137.511719 202.347656 106.460938 242.480469 67.40625 248.550781 C 62.605469 249.296875 62.015625 256.015625 66.601562 257.625 C 77.269531 261.367188 99.59375 258.9375 143.621094 225.839844 C 143.621094 225.839844 123.109375 249.195312 82.914062 278.105469 C 78.5 281.273438 82.082031 288.199219 87.203125 286.382812 C 113.34375 277.109375 157.179688 239.636719 157.179688 239.636719 C 138.054688 261.953125 110.960938 280.21875 101.324219 287.777344 C 97.941406 290.433594 98.21875 295.824219 102.023438 297.820312 C 103.101562 298.390625 104.109375 298.324219 105.101562 297.957031 C 130.8125 288.449219 168.09375 253.234375 168.09375 253.234375 L 130.796875 294.007812 C 129.691406 298.074219 133.960938 301.699219 137.671875 299.714844 C 138.21875 299.425781 190.355469 263.152344 207.75 209.964844 C 232.050781 204.101562 283.515625 189.824219 350.527344 160.878906 C 360.964844 156.371094 369.339844 170.199219 360.570312 177.4375 C 316.105469 214.144531 202.464844 252.28125 202.464844 252.28125 C 262.691406 242.011719 324.199219 213.210938 347.976562 204.105469 C 356.316406 200.910156 365.636719 207.160156 365.136719 216.078125 C 364.996094 218.613281 363.8125 220.339844 362.097656 221.714844 C 317.667969 257.40625 215.046875 286.265625 215.046875 286.265625 L 327.609375 263.3125 C 336.035156 265.6875 337.9375 277.164062 330.429688 281.671875 C 330.429688 281.671875 217.949219 351.128906 83.179688 329.5 C 74.96875 328.179688 68.101562 327.375 62.125 326.890625 C 95.347656 356.820312 139.308594 375.050781 187.546875 375.050781 C 291.105469 375.050781 375.050781 291.105469 375.050781 187.546875 C 375.050781 83.992188 291.105469 0.0429688 187.546875 0.0429688 " fill-opacity="1" fill-rule="nonzero"/></svg>