<?xml version="1.0" encoding="utf-8" standalone="yes"?>
<!DOCTYPE svg PUBLIC "-//W3C//DTD SVG 1.1//EN" "http://www.w3.org/Graphics/SVG/1.1/DTD/svg11.dtd">
<svg width="854" height="446" viewBox="0 0 854 446" style="fill:none;stroke:none;fill-rule:evenodd;clip-rule:evenodd;stroke-linecap:round;stroke-linejoin:round;stroke-miterlimit:1.5;" version="1.1" xmlns="http://www.w3.org/2000/svg" xmlns:xlink="http://www.w3.org/1999/xlink"><style id="fontImports">@import url("https://fonts.googleapis.com/css2?family=Roboto:wght@400;700&amp;display=block");</style><g id="items" style="isolation: isolate"><g id="blend" style="mix-blend-mode:normal"><g id="g-root-ro_18jfedxk0tssq-fill" data-item-order="-27144" transform="translate(315, 51)"><g id="ro_18jfedxk0tssq-fill" stroke="none" fill="#f0f0f0"><g><path d="M 34 10L 142 10C 142 10 166 10 166 34L 166 160C 166 160 166 184 142 184L 34 184C 34 184 10 184 10 160L 10 34C 10 34 10 10 34 10"></path></g></g></g><g id="g-root-ro_1lt0knpk0jymj-fill" data-item-order="-16200" transform="translate(519, 39)"><g id="ro_1lt0knpk0jymj-fill" stroke="none" fill="#f7e6fe"><g><path d="M 22 10L 298 10C 298 10 310 10 310 22L 310 52C 310 52 310 64 298 64L 22 64C 22 64 10 64 10 52L 10 22C 10 22 10 10 22 10"></path></g></g></g><g id="g-root-ro_dg2hlhk0lcsu-fill" data-item-order="-13608" transform="translate(15, 39)"><g id="ro_dg2hlhk0lcsu-fill" stroke="none" fill="#e6efff"><g><path d="M 22 10L 250 10C 250 10 262 10 262 22L 262 52C 262 52 262 64 250 64L 22 64C 22 64 10 64 10 52L 10 22C 10 22 10 10 22 10"></path></g></g></g><g id="g-root-ro_1hi6v85k0jzlw-fill" data-item-order="-13608" transform="translate(267, 261)"><g id="ro_1hi6v85k0jzlw-fill" stroke="none" fill="#fffce6"><g><path d="M 22 10L 250 10C 250 10 262 10 262 22L 262 52C 262 52 262 64 250 64L 22 64C 22 64 10 64 10 52L 10 22C 10 22 10 10 22 10"></path></g></g></g><g id="g-root-tx_responsi_qvwbklk0jzm1-fill" data-item-order="0" transform="translate(315, 327)"><g id="tx_responsi_qvwbklk0jzm1-fill" stroke="none" fill="#484848"><g><text style="font-style: normal; font-variant-caps: normal; font-weight: normal; font-stretch: normal; font-size: 20px; line-height: normal; font-family: Roboto, sans-serif; font-size-adjust: none; font-kerning: auto; font-variant-alternates: normal; font-variant-ligatures: normal; font-variant-numeric: normal; font-variant-east-asian: normal; font-variant-position: normal; font-variant-emoji: normal; font-feature-settings: normal; font-optical-sizing: auto; font-variation-settings: normal; white-space: pre;"><tspan x="15.43" y="34" dominant-baseline="ideographic">Responsive Design</tspan></text></g></g></g><g id="g-root-cu_58gb9k0lc0d-fill" data-item-order="0" transform="translate(291, 315)"></g><g id="g-root-cu_58gb9k0lc0a-fill" data-item-order="0" transform="translate(291, 315)"></g><g id="g-root-cu_908zh1k0ldl3-fill" data-item-order="0" transform="translate(267, 66)"></g><g id="g-root-tx_extensiv_mg2tg5k0k0ea-fill" data-item-order="0" transform="translate(315, 363)"><g id="tx_extensiv_mg2tg5k0k0ea-fill" stroke="none" fill="#484848"><g><text style="font-style: normal; font-variant-caps: normal; font-weight: normal; font-stretch: normal; font-size: 20px; line-height: normal; font-family: Roboto, sans-serif; font-size-adjust: none; font-kerning: auto; font-variant-alternates: normal; font-variant-ligatures: normal; font-variant-numeric: normal; font-variant-east-asian: normal; font-variant-position: normal; font-variant-emoji: normal; font-feature-settings: normal; font-optical-sizing: auto; font-variation-settings: normal; white-space: pre;"><tspan x="16.19" y="34" dominant-baseline="ideographic">Extensive Testing</tspan></text></g></g></g><g id="g-root-cu_908zh1k0ldl9-fill" data-item-order="0" transform="translate(393, 225)"></g><g id="g-root-cu_908zh1k0ldl6-fill" data-item-order="0" transform="translate(471, 66)"></g><g id="g-root-tx_figmapro_zrjbthk0jytc-fill" data-item-order="0" transform="translate(567, 141)"><g id="tx_figmapro_zrjbthk0jytc-fill" stroke="none" fill="#484848"><g><text style="font-style: normal; font-variant-caps: normal; font-weight: normal; font-stretch: normal; font-size: 20px; line-height: normal; font-family: Roboto, sans-serif; font-size-adjust: none; font-kerning: auto; font-variant-alternates: normal; font-variant-ligatures: normal; font-variant-numeric: normal; font-variant-east-asian: normal; font-variant-position: normal; font-variant-emoji: normal; font-feature-settings: normal; font-optical-sizing: auto; font-variation-settings: normal; white-space: pre;"><tspan x="15.26" y="34" dominant-baseline="ideographic">Figma Prototypes</tspan></text></g></g></g><g id="g-root-tx_clearvis_18mjuz9k0k0em-fill" data-item-order="0" transform="translate(87, 141)"><g id="tx_clearvis_18mjuz9k0k0em-fill" stroke="none" fill="#484848"><g><text style="font-style: normal; font-variant-caps: normal; font-weight: normal; font-stretch: normal; font-size: 20px; line-height: normal; font-family: Roboto, sans-serif; font-size-adjust: none; font-kerning: auto; font-variant-alternates: normal; font-variant-ligatures: normal; font-variant-numeric: normal; font-variant-east-asian: normal; font-variant-position: normal; font-variant-emoji: normal; font-feature-settings: normal; font-optical-sizing: auto; font-variation-settings: normal; white-space: pre;"><tspan x="17.49" y="34" dominant-baseline="ideographic">Clear Visuals</tspan></text></g></g></g><g id="g-root-tx_intuitiv_1hi6v85k0jzlx-fill" data-item-order="0" transform="translate(39, 105)"><g id="tx_intuitiv_1hi6v85k0jzlx-fill" stroke="none" fill="#484848"><g><text style="font-style: normal; font-variant-caps: normal; font-weight: normal; font-stretch: normal; font-size: 20px; line-height: normal; font-family: Roboto, sans-serif; font-size-adjust: none; font-kerning: auto; font-variant-alternates: normal; font-variant-ligatures: normal; font-variant-numeric: normal; font-variant-east-asian: normal; font-variant-position: normal; font-variant-emoji: normal; font-feature-settings: normal; font-optical-sizing: auto; font-variation-settings: normal; white-space: pre;"><tspan x="14.29" y="34" dominant-baseline="ideographic">Intuitive Navigation</tspan></text></g></g></g><g id="g-root-cu_4kfhclk0ledk-fill" data-item-order="0" transform="translate(225, 93)"></g><g id="g-root-cu_4kfhclk0ledn-fill" data-item-order="0" transform="translate(225, 93)"></g><g id="g-root-tx_develope_147ctxxk0jy13-fill" data-item-order="0" transform="translate(567, 105)"><g id="tx_develope_147ctxxk0jy13-fill" stroke="none" fill="#484848"><g><text style="font-style: normal; font-variant-caps: normal; font-weight: normal; font-stretch: normal; font-size: 20px; line-height: normal; font-family: Roboto, sans-serif; font-size-adjust: none; font-kerning: auto; font-variant-alternates: normal; font-variant-ligatures: normal; font-variant-numeric: normal; font-variant-east-asian: normal; font-variant-position: normal; font-variant-emoji: normal; font-feature-settings: normal; font-optical-sizing: auto; font-variation-settings: normal; white-space: pre;"><tspan x="12.22" y="34" dominant-baseline="ideographic">Developer Communication</tspan></text></g></g></g><g id="g-root-cu_908zh1k0ledc-fill" data-item-order="0" transform="translate(543, 93)"></g><g id="g-root-cu_4kfhclk0ledp-fill" data-item-order="0" transform="translate(543, 93)"></g><g id="g-root-tx_designpr_1lu9fo5k0tudk-fill" data-item-order="1000000000" transform="translate(339, 129)"><g id="tx_designpr_1lu9fo5k0tudk-fill" stroke="none" fill="#484848"><g><text style="font-style: normal; font-variant-caps: normal; font-weight: normal; font-stretch: normal; font-size: 20px; line-height: normal; font-family: Roboto, sans-serif; font-size-adjust: none; font-kerning: auto; font-variant-alternates: normal; font-variant-ligatures: normal; font-variant-numeric: normal; font-variant-east-asian: normal; font-variant-position: normal; font-variant-emoji: normal; font-feature-settings: normal; font-optical-sizing: auto; font-variation-settings: normal; white-space: pre;"><tspan x="33.41" y="34" dominant-baseline="ideographic">Design </tspan><tspan x="32.41" y="58" dominant-baseline="ideographic">Project </tspan><tspan x="14.41" y="82" dominant-baseline="ideographic">Challenges</tspan></text></g></g></g><g id="g-root-tx_designto_8ydk7pk0jzlt-fill" data-item-order="1000000000" transform="translate(567, 54)"><g id="tx_designto_8ydk7pk0jzlt-fill" stroke="none" fill="#b65edf"><g><text style="font-style: normal; font-variant-caps: normal; font-weight: normal; font-stretch: normal; font-size: 20px; line-height: normal; font-family: Roboto, sans-serif; font-size-adjust: none; font-kerning: auto; font-variant-alternates: normal; font-variant-ligatures: normal; font-variant-numeric: normal; font-variant-east-asian: normal; font-variant-position: normal; font-variant-emoji: normal; font-feature-settings: normal; font-optical-sizing: auto; font-variation-settings: normal; white-space: pre;"><tspan x="14.03" y="34" dominant-baseline="ideographic">Design-to-Code Alignment</tspan></text></g></g></g><g id="g-root-1_18jfedxk0tssp-fill" data-item-order="1000000000" transform="translate(369, 75)"></g><g id="g-root-expa_1ly0dclk0jytn-fill" data-item-order="1000000000" transform="translate(279, 273)"></g><g id="g-root-tx_mobileop_1utndlhk0jy0y-fill" data-item-order="1000000000" transform="translate(315, 276)"><g id="tx_mobileop_1utndlhk0jy0y-fill" stroke="none" fill="#e3cd09"><g><text style="font-style: normal; font-variant-caps: normal; font-weight: normal; font-stretch: normal; font-size: 20px; line-height: normal; font-family: Roboto, sans-serif; font-size-adjust: none; font-kerning: auto; font-variant-alternates: normal; font-variant-ligatures: normal; font-variant-numeric: normal; font-variant-east-asian: normal; font-variant-position: normal; font-variant-emoji: normal; font-feature-settings: normal; font-optical-sizing: auto; font-variation-settings: normal; white-space: pre;"><tspan x="16.32" y="34" dominant-baseline="ideographic">Mobile Optimization</tspan></text></g></g></g><g id="g-root-cent_1uonkwlk0jxtu-fill" data-item-order="1000000000" transform="translate(531, 51)"></g><g id="g-root-tx_clientre_qqwivpk0ledo-fill" data-item-order="1000000000" transform="translate(27, 54)"><g id="tx_clientre_qqwivpk0ledo-fill" stroke="none" fill="#4682e3"><g><text style="font-style: normal; font-variant-caps: normal; font-weight: normal; font-stretch: normal; font-size: 20px; line-height: normal; font-family: Roboto, sans-serif; font-size-adjust: none; font-kerning: auto; font-variant-alternates: normal; font-variant-ligatures: normal; font-variant-numeric: normal; font-variant-east-asian: normal; font-variant-position: normal; font-variant-emoji: normal; font-feature-settings: normal; font-optical-sizing: auto; font-variation-settings: normal; white-space: pre;"><tspan x="16.21" y="34" dominant-baseline="ideographic">Client Requirements</tspan></text></g></g></g><g id="g-root-circ_dg2hlhk0lcst-fill" data-item-order="1000000000" transform="translate(225, 51)"></g><g id="g-root-ro_18jfedxk0tssq-stroke" data-item-order="-27144" transform="translate(315, 51)"><g id="ro_18jfedxk0tssq-stroke" fill="none" stroke-linecap="round" stroke-linejoin="round" stroke-miterlimit="4" stroke="#484848" stroke-width="2"><g><path d="M 34 10L 142 10C 142 10 166 10 166 34L 166 160C 166 160 166 184 142 184L 34 184C 34 184 10 184 10 160L 10 34C 10 34 10 10 34 10"></path></g></g></g><g id="g-root-ro_1lt0knpk0jymj-stroke" data-item-order="-16200" transform="translate(519, 39)"><g id="ro_1lt0knpk0jymj-stroke" fill="none" stroke-linecap="round" stroke-linejoin="round" stroke-miterlimit="4" stroke="#b65edf" stroke-width="2"><g><path d="M 22 10L 298 10C 298 10 310 10 310 22L 310 52C 310 52 310 64 298 64L 22 64C 22 64 10 64 10 52L 10 22C 10 22 10 10 22 10"></path></g></g></g><g id="g-root-ro_dg2hlhk0lcsu-stroke" data-item-order="-13608" transform="translate(15, 39)"><g id="ro_dg2hlhk0lcsu-stroke" fill="none" stroke-linecap="round" stroke-linejoin="round" stroke-miterlimit="4" stroke="#4682e3" stroke-width="2"><g><path d="M 22 10L 250 10C 250 10 262 10 262 22L 262 52C 262 52 262 64 250 64L 22 64C 22 64 10 64 10 52L 10 22C 10 22 10 10 22 10"></path></g></g></g><g id="g-root-ro_1hi6v85k0jzlw-stroke" data-item-order="-13608" transform="translate(267, 261)"><g id="ro_1hi6v85k0jzlw-stroke" fill="none" stroke-linecap="round" stroke-linejoin="round" stroke-miterlimit="4" stroke="#e3cd09" stroke-width="2"><g><path d="M 22 10L 250 10C 250 10 262 10 262 22L 262 52C 262 52 262 64 250 64L 22 64C 22 64 10 64 10 52L 10 22C 10 22 10 10 22 10"></path></g></g></g><g id="g-root-tx_responsi_qvwbklk0jzm1-stroke" data-item-order="0" transform="translate(315, 327)"></g><g id="g-root-cu_58gb9k0lc0d-stroke" data-item-order="0" transform="translate(291, 315)"><g id="cu_58gb9k0lc0d-stroke" fill="none" stroke-linecap="round" stroke-linejoin="round" stroke-miterlimit="4" stroke="#888888" stroke-width="2" stroke-dasharray="5.0, 7.0"><g><path d="M 10 10L 10 17.5L 10 58C 10.000002 64.627417 15.372585 70 22.000002 69.999999L 22.1 70L 28 70"></path></g></g></g><g id="g-root-cu_58gb9k0lc0a-stroke" data-item-order="0" transform="translate(291, 315)"><g id="cu_58gb9k0lc0a-stroke" fill="none" stroke-linecap="round" stroke-linejoin="round" stroke-miterlimit="4" stroke="#888888" stroke-width="2" stroke-dasharray="5.0, 7.0"><g><path d="M 10 10L 10 22L 10 34L 19 34L 28 34"></path></g></g></g><g id="g-root-cu_908zh1k0ldl3-stroke" data-item-order="0" transform="translate(267, 66)"><g id="cu_908zh1k0ldl3-stroke" fill="none" stroke-linecap="round" stroke-linejoin="round" stroke-miterlimit="4" stroke="#888888" stroke-width="2" stroke-dasharray="5.0, 7.0"><g><path d="M 58 53L 55 53L 54.9 53C 43.357252 53.000001 34.000002 43.642752 34.000002 32.1L 34 32L 34 30.9C 33.999998 19.357248 24.64275 10 13.1 10L 13 10L 10 10"></path></g></g></g><g id="g-root-tx_extensiv_mg2tg5k0k0ea-stroke" data-item-order="0" transform="translate(315, 363)"></g><g id="g-root-cu_908zh1k0ldl9-stroke" data-item-order="0" transform="translate(393, 225)"><g id="cu_908zh1k0ldl9-stroke" fill="none" stroke-linecap="round" stroke-linejoin="round" stroke-miterlimit="4" stroke="#888888" stroke-width="2" stroke-dasharray="5.0, 7.0"><g><path d="M 10 10L 10 28L 10 46"></path></g></g></g><g id="g-root-cu_908zh1k0ldl6-stroke" data-item-order="0" transform="translate(471, 66)"><g id="cu_908zh1k0ldl6-stroke" fill="none" stroke-linecap="round" stroke-linejoin="round" stroke-miterlimit="4" stroke="#888888" stroke-width="2" stroke-dasharray="5.0, 7.0"><g><path d="M 10 53L 13 53L 13.1 53C 24.642753 52.999998 34.000001 43.642749 34 32.099998L 34 32L 34 30.9C 33.999999 19.357249 43.357248 10.000001 54.899999 10.000002L 55 10L 58 10"></path></g></g></g><g id="g-root-tx_figmapro_zrjbthk0jytc-stroke" data-item-order="0" transform="translate(567, 141)"></g><g id="g-root-tx_clearvis_18mjuz9k0k0em-stroke" data-item-order="0" transform="translate(87, 141)"></g><g id="g-root-tx_intuitiv_1hi6v85k0jzlx-stroke" data-item-order="0" transform="translate(39, 105)"></g><g id="g-root-cu_4kfhclk0ledk-stroke" data-item-order="0" transform="translate(225, 93)"><g id="cu_4kfhclk0ledk-stroke" fill="none" stroke-linecap="round" stroke-linejoin="round" stroke-miterlimit="4" stroke="#888888" stroke-width="2" stroke-dasharray="5.0, 7.0"><g><path d="M 28 10L 28 22L 28 34L 19 34L 10 34"></path></g></g></g><g id="g-root-cu_4kfhclk0ledn-stroke" data-item-order="0" transform="translate(225, 93)"><g id="cu_4kfhclk0ledn-stroke" fill="none" stroke-linecap="round" stroke-linejoin="round" stroke-miterlimit="4" stroke="#888888" stroke-width="2" stroke-dasharray="5.0, 7.0"><g><path d="M 28 10L 28 17.5L 28 58C 27.999999 64.627415 22.627416 69.999998 16 69.999998L 15.9 70L 10 70"></path></g></g></g><g id="g-root-tx_develope_147ctxxk0jy13-stroke" data-item-order="0" transform="translate(567, 105)"></g><g id="g-root-cu_908zh1k0ledc-stroke" data-item-order="0" transform="translate(543, 93)"><g id="cu_908zh1k0ledc-stroke" fill="none" stroke-linecap="round" stroke-linejoin="round" stroke-miterlimit="4" stroke="#888888" stroke-width="2" stroke-dasharray="5.0, 7.0"><g><path d="M 10 10L 10 17.5L 10 58C 10.000002 64.627417 15.372585 70 22.000002 69.999999L 22.1 70L 28 70"></path></g></g></g><g id="g-root-cu_4kfhclk0ledp-stroke" data-item-order="0" transform="translate(543, 93)"><g id="cu_4kfhclk0ledp-stroke" fill="none" stroke-linecap="round" stroke-linejoin="round" stroke-miterlimit="4" stroke="#888888" stroke-width="2" stroke-dasharray="5.0, 7.0"><g><path d="M 10 10L 10 22L 10 34L 19 34L 28 34"></path></g></g></g><g id="g-root-tx_designpr_1lu9fo5k0tudk-stroke" data-item-order="1000000000" transform="translate(339, 129)"></g><g id="g-root-tx_designto_8ydk7pk0jzlt-stroke" data-item-order="1000000000" transform="translate(567, 54)"></g><g id="g-root-1_18jfedxk0tssp-stroke" data-item-order="1000000000" transform="translate(369, 75)"><g id="1_18jfedxk0tssp-stroke" fill="none" stroke-linecap="round" stroke-linejoin="round" stroke-miterlimit="4" stroke="#484848" stroke-width="2"><g><path d="M 29 51L 39 51M 29 46.296001L 29 53C 29 54.104568 29.89543 55 31 55L 37 55C 38.104568 55 39 54.104568 39 53L 39 46.296001M 34 55L 34 57M 28 40.993999L 28 32L 34 36L 40 32L 40 40.993999M 28 32L 34 19L 40 32M 16 29C 16 38.941124 24.058876 47 34 47C 43.941124 47 52 38.941124 52 29C 52 19.058876 43.941124 11 34 11C 24.058876 11 16 19.058876 16 29ZM 34 36L 34 42.832001M 37.354 26.266001C 35.225086 27.244669 32.77491 27.244669 30.645998 26.265999"></path></g></g></g><g id="g-root-expa_1ly0dclk0jytn-stroke" data-item-order="1000000000" transform="translate(279, 273)"><g id="expa_1ly0dclk0jytn-stroke" fill="none" stroke-linecap="round" stroke-linejoin="round" stroke-miterlimit="4" stroke="#e3cd09" stroke-width="2"><g><path d="M 15.625 16.25L 39.375 16.25M 15.625 25.625L 15.625 13.125C 15.625 11.744288 16.744287 10.625 18.125 10.625L 36.875 10.625C 38.255714 10.625 39.375 11.744288 39.375 13.125L 39.375 26.875C 39.375 28.255713 38.255714 29.375 36.875 29.375L 29.375 29.375M 11.875 28.125L 25.625 28.125C 25.625 28.125 26.875 28.125 26.875 29.375L 26.875 38.125C 26.875 38.125 26.875 39.375 25.625 39.375L 11.875 39.375C 11.875 39.375 10.625 39.375 10.625 38.125L 10.625 29.375C 10.625 29.375 10.625 28.125 11.875 28.125M 10.625 31.875L 26.875 31.875M 28.75 24.375L 33.75 19.375M 30 19.375L 33.75 19.375L 33.75 23.125M 26.25 24.375L 21.25 19.375M 25 19.375L 21.25 19.375L 21.25 23.125M 19.6875 13.125C 19.860088 13.125 20 13.264911 20 13.4375C 20 13.610089 19.860088 13.75 19.6875 13.75C 19.514912 13.75 19.375 13.610089 19.375 13.4375C 19.375 13.264911 19.514912 13.125 19.6875 13.125M 22.8125 13.125C 22.985088 13.125 23.125 13.264911 23.125 13.4375C 23.125 13.610089 22.985088 13.75 22.8125 13.75C 22.639912 13.75 22.5 13.610089 22.5 13.4375C 22.5 13.264911 22.639912 13.125 22.8125 13.125M 25.9375 13.125C 26.110088 13.125 26.25 13.264911 26.25 13.4375C 26.25 13.610089 26.110088 13.75 25.9375 13.75C 25.764912 13.75 25.625 13.610089 25.625 13.4375C 25.625 13.264911 25.764912 13.125 25.9375 13.125"></path></g></g></g><g id="g-root-tx_mobileop_1utndlhk0jy0y-stroke" data-item-order="1000000000" transform="translate(315, 276)"></g><g id="g-root-cent_1uonkwlk0jxtu-stroke" data-item-order="1000000000" transform="translate(531, 51)"><g id="cent_1uonkwlk0jxtu-stroke" fill="none" stroke-linecap="round" stroke-linejoin="round" stroke-miterlimit="4" stroke="#b65edf" stroke-width="2"><g><path d="M 25 32.5L 25 37.5M 25 22.5L 25 26.25M 25 12.5L 25 16.25M 20 16.25L 30 16.25C 30 16.25 31.25 16.25 31.25 17.5L 31.25 21.25C 31.25 21.25 31.25 22.5 30 22.5L 20 22.5C 20 22.5 18.75 22.5 18.75 21.25L 18.75 17.5C 18.75 17.5 18.75 16.25 20 16.25M 16.25 26.25L 33.75 26.25C 33.75 26.25 35 26.25 35 27.5L 35 31.25C 35 31.25 35 32.5 33.75 32.5L 16.25 32.5C 16.25 32.5 15 32.5 15 31.25L 15 27.5C 15 27.5 15 26.25 16.25 26.25"></path></g></g></g><g id="g-root-tx_clientre_qqwivpk0ledo-stroke" data-item-order="1000000000" transform="translate(27, 54)"></g><g id="g-root-circ_dg2hlhk0lcst-stroke" data-item-order="1000000000" transform="translate(225, 51)"><g id="circ_dg2hlhk0lcst-stroke" fill="none" stroke-linecap="round" stroke-linejoin="round" stroke-miterlimit="4" stroke="#4682e3" stroke-width="2"><g><path d="M 11.071428 25C 11.071429 32.692539 17.307463 38.92857 25 38.92857C 32.692539 38.92857 38.92857 32.692539 38.92857 25C 38.92857 17.307463 32.692539 11.071429 25 11.071429C 17.307463 11.071429 11.071429 17.307463 11.071429 25"></path></g></g></g></g></g></svg>